# xmcd
# Copyright (C) 1995-1998 Ti Kan
#
# Track frame offsets:
#       150
#       29655
#       44976
#       73734
#       101277
#       137398
#       156862
#       179513
#
# Disc length: 2839 seconds
#
# Revision: 0
# Processed by: cddbd v1.5.2PL0 Copyright (c) Steve Scherf et al.
# Submitted via: CD-Transfer v1.0
#
DISCID=710b1508
DTITLE=Waitapu - Waitapu
DYEAR=17
DGENRE=
TTITLE0=Oglas
TTITLE1=Jeux
TTITLE2=Chrom Dioxid
TTITLE3=Deca, Moja Deca
TTITLE4=Cat Under A Helmet
TTITLE5=Twisted Choban
TTITLE6=Safe Zone
TTITLE7=Chapter Zero
EXTD=
EXTT0=
EXTT1=
EXTT2=
EXTT3=
EXTT4=
EXTT5=
EXTT6=
EXTT7=
PLAYORDER=
